<?xml version="1.0" encoding="UTF-8" standalone="no"?>
<svg
   xmlns:dc="http://purl.org/dc/elements/1.1/"
   xmlns:cc="http://creativecommons.org/ns#"
   xmlns:rdf="http://www.w3.org/1999/02/22-rdf-syntax-ns#"
   xmlns:svg="http://www.w3.org/2000/svg"
   xmlns="http://www.w3.org/2000/svg"
   viewBox="0 0 598.14532 274.51999"
   height="274.51999"
   width="598.14532"
   xml:space="preserve"
   id="svg2"
   version="1.1"><metadata
     id="metadata8"><rdf:RDF><cc:Work
         rdf:about=""><dc:format>image/svg+xml</dc:format><dc:type
           rdf:resource="http://purl.org/dc/dcmitype/StillImage" /></cc:Work></rdf:RDF></metadata><defs
     id="defs6"><clipPath
       id="clipPath18"
       clipPathUnits="userSpaceOnUse"><path
         id="path16"
         d="M 0,205.89 H 448.609 V 0 H 0 Z" /></clipPath></defs><g
     transform="matrix(1.3333333,0,0,-1.3333333,0,274.52)"
     id="g10"><g
       id="g12"><g
         clip-path="url(#clipPath18)"
         id="g14"><g
           transform="translate(290.0264,160.9655)"
           id="g20"><path
             id="path22"
             style="fill:#9dd4b1;fill-opacity:1;fill-rule:nonzero;stroke:none"
             d="m 0,0 c -8.584,0.644 -17.688,-2.044 -25.436,-8.218 -1.655,-1.331 -3.269,-2.818 -4.816,-4.489 1.882,0.317 3.788,0.487 5.687,0.51 4.281,0.031 8.586,-0.714 12.68,-2.275 0.419,2.602 1.26,4.98 2.524,7.076 C -7.129,-3.742 -3.816,-1.333 0,0" /></g><g
           transform="translate(307.6494,135.5768)"
           id="g24"><path
             id="path26"
             style="fill:#a7ce46;fill-opacity:1;fill-rule:nonzero;stroke:none"
             d="m 0,0 c -0.46,-1.163 -1.02,-2.222 -1.644,-3.204 0.142,-0.598 0.246,-1.163 0.344,-1.635 0.141,-0.88 0.243,-1.785 0.31,-2.694 0.678,-0.503 1.334,-1.054 1.983,-1.637 4.454,-4.03 7.715,-9.329 9.536,-15.157 C 15.583,-7.632 10.986,10.215 -0.896,19.15 1.975,12.966 2.328,5.873 0,0" /></g><g
           transform="translate(286.4863,141.8981)"
           id="g28"><path
             id="path30"
             style="fill:#60c6d0;fill-opacity:1;fill-rule:nonzero;stroke:none"
             d="m 0,0 c 1.456,0.856 2.965,1.449 4.501,1.77 2.16,0.458 6.228,0.794 9.926,-2.289 2.927,-2.447 4.423,-6.222 5.093,-9.006 0.624,0.982 1.183,2.041 1.643,3.204 2.328,5.872 1.975,12.966 -0.895,19.15 C 15.147,16.671 9.342,18.624 3.54,19.067 -0.276,17.734 -3.589,15.325 -5.821,11.671 -7.085,9.575 -7.926,7.197 -8.345,4.595 -5.454,3.498 -2.644,1.982 -0.046,0.046 -0.024,0.041 -0.012,0.019 0,0" /></g><g
           transform="translate(261.5068,113.9225)"
           id="g32"><path
             id="path34"
             style="fill:#879fac;fill-opacity:1;fill-rule:nonzero;stroke:none"
             d="m 0,0 c 4.479,7.126 9.536,12.414 14.989,15.628 0.389,0.901 0.79,1.787 1.239,2.626 0.016,0.029 0.027,0.057 0.044,0.076 0.31,0.582 0.622,1.138 0.956,1.678 2.186,3.588 4.864,6.3 7.751,7.968 -0.011,0.019 -0.024,0.04 -0.045,0.046 -2.598,1.936 -5.409,3.451 -8.299,4.549 -4.094,1.561 -8.4,2.306 -12.681,2.275 C 2.056,34.823 0.149,34.653 -1.732,34.336 -2.735,33.252 -3.714,32.087 -4.665,30.847 -11.311,22.149 -15.449,11.025 -15.53,-0.44 -15.611,-11.213 -12.392,-20.36 -7.023,-26.808 -8.266,-18.952 -6.085,-9.711 0,0" /></g><g
           transform="translate(299.2148,104.1046)"
           id="g36"><path
             id="path38"
             style="fill:#f48635;fill-opacity:1;fill-rule:nonzero;stroke:none"
             d="m 0,0 c -0.856,-3.034 -2.098,-6.419 -3.826,-9.233 -6.033,-9.846 -16.466,-15.92 -27.064,-16.897 8.171,-2.424 17.531,-1.13 25.944,3.36 7.936,4.238 15.323,11.46 20.255,20.947 1.049,2.01 1.945,4.056 2.693,6.104 C 12.613,-0.168 6.121,-1.71 0,0" /></g><g
           transform="translate(295.3887,94.8712)"
           id="g40"><path
             id="path42"
             style="fill:#5b465d;fill-opacity:1;fill-rule:nonzero;stroke:none"
             d="m 0,0 c 1.729,2.814 2.97,6.199 3.826,9.233 -0.2,0.06 0.215,-0.072 0,0 C 1.323,6.204 -2.245,3.526 -5.341,1.96 -7.885,0.668 -12.963,-1.146 -17.062,1.062 c -4.446,2.433 -5.391,8.239 -5.622,11.668 -0.477,7.039 0.89,15.105 3.791,21.949 -5.453,-3.214 -10.509,-8.502 -14.989,-15.628 -6.085,-9.711 -8.265,-18.951 -7.023,-26.808 2.886,-3.456 6.468,-6.201 10.691,-8.013 1.037,-0.437 2.083,-0.817 3.151,-1.126 C -16.466,-15.92 -6.033,-9.846 0,0" /></g><g
           transform="translate(308.6426,126.4069)"
           id="g44"><path
             id="path46"
             style="fill:#ffcc2a;fill-opacity:1;fill-rule:nonzero;stroke:none"
             d="m 0,0 c -0.649,0.583 -1.306,1.134 -1.983,1.637 0.4,-5.377 -0.743,-11.311 -3.252,-16.656 -1.048,-2.238 -2.746,-5.395 -4.193,-7.283 -0.118,-0.508 0.153,0.496 0,0 6.121,-1.711 12.614,-0.168 18.002,4.281 0.35,0.958 0.663,1.903 0.962,2.864 C 7.715,-9.329 4.454,-4.03 0,0" /></g><g
           transform="translate(232.5078,163.2008)"
           id="g48"><path
             id="path50"
             style="fill:#5b465d;fill-opacity:1;fill-rule:nonzero;stroke:none"
             d="m 0,0 h -13.958 c -2.212,0 -4.005,-1.793 -4.005,-4.004 v -3.947 -2.216 -72.077 c 0,-2.212 1.793,-4.005 4.005,-4.005 H 0 c 2.212,0 4.005,1.793 4.005,4.005 v 72.077 2.216 3.947 C 4.005,-1.793 2.212,0 0,0" /></g><g
           transform="translate(119.457,163.2008)"
           id="g52"><path
             id="path54"
             style="fill:#5b465d;fill-opacity:1;fill-rule:nonzero;stroke:none"
             d="m 0,0 h -0.233 -57.198 -0.234 c -2.211,0 -4.004,-1.793 -4.004,-4.005 v -11.287 c 0,-2.212 1.793,-4.005 4.004,-4.005 h 0.234 10.292 6.045 v -13.444 -30.203 -19.3 c 0,-2.212 1.793,-4.005 4.005,-4.005 h 16.514 c 2.212,0 4.005,1.793 4.005,4.005 v 19.708 33.968 9.271 h 6.877 9.46 H 0 c 2.212,0 4.005,1.793 4.005,4.005 V -4.005 C 4.005,-1.793 2.212,0 0,0" /></g><g
           transform="translate(370.8799,96.2492)"
           id="g56"><path
             id="path58"
             style="fill:#5b465d;fill-opacity:1;fill-rule:nonzero;stroke:none"
             d="m 0,0 h -0.233 -10.292 -6.045 v 13.444 30.202 19.301 c 0,2.212 -1.793,4.005 -4.004,4.005 H -37.09 c -2.212,0 -4.005,-1.793 -4.005,-4.005 l 0.14,-78.239 c 0,-2.212 1.793,-4.005 4.005,-4.005 h 0.477 13.482 H -0.233 0 c 2.212,0 4.005,1.793 4.005,4.005 V -4.005 C 4.005,-1.793 2.212,0 0,0" /></g><g
           transform="translate(178.624,137.7843)"
           id="g60"><path
             id="path62"
             style="fill:#5b465d;fill-opacity:1;fill-rule:nonzero;stroke:none"
             d="m 0,0 c 0,5.998 -3.86,8.967 -11.521,8.909 h -12.173 v -21.618 h 12.173 c 7.721,0 11.581,2.97 11.521,8.967 l 0,3.683 z m 21.913,-4.098 c 0,-5.047 -1.246,-9.383 -3.741,-12.945 -2.494,-3.564 -5.998,-6.296 -10.57,-8.254 l 18.053,-29.277 c 0.949,-1.486 1.128,-2.732 0.534,-3.742 -0.594,-1.009 -1.782,-1.484 -3.504,-1.484 H 8.908 c -2.316,0 -4.098,1.009 -5.345,2.969 l -16.568,28.03 h -10.689 v -26.604 c 0,-1.366 -0.356,-2.437 -1.129,-3.208 -0.772,-0.772 -1.841,-1.128 -3.206,-1.128 h -13.124 c -1.366,0 -2.435,0.416 -3.207,1.188 -0.772,0.772 -1.128,1.841 -1.128,3.207 v 76.368 c 0,1.366 0.415,2.435 1.187,3.207 0.772,0.771 1.841,1.188 3.207,1.188 h 30.88 c 9.799,0 17.637,-2.197 23.516,-6.592 5.879,-4.394 8.79,-10.511 8.79,-18.35 v -4.394 z" /></g><g
           transform="translate(82.4097,37.3712)"
           id="g64"><path
             id="path66"
             style="fill:#5b465d;fill-opacity:1;fill-rule:nonzero;stroke:none"
             d="m 0,0 c -2.724,2.764 -4.085,6.41 -4.085,10.939 0,4.53 1.298,8.177 3.898,10.942 2.597,2.765 5.966,4.147 10.106,4.147 4.946,0 8.754,-1.696 11.421,-5.086 0.389,-0.5 0.521,-0.972 0.396,-1.417 -0.125,-0.445 -0.479,-0.805 -1.062,-1.083 l -2.21,-1.084 c -0.944,-0.472 -1.792,-0.264 -2.542,0.625 -1.417,1.667 -3.335,2.501 -5.753,2.501 -2.139,0 -3.931,-0.84 -5.376,-2.522 -1.445,-1.68 -2.168,-4.021 -2.168,-7.023 0,-3 0.757,-5.34 2.272,-7.022 1.515,-1.683 3.424,-2.521 5.731,-2.521 2.612,0 4.474,0.75 5.585,2.25 V 7.647 H 12.17 c -1.223,0 -1.833,0.611 -1.833,1.834 v 1.125 c 0,1.223 0.61,1.835 1.833,1.835 h 8.545 c 1.222,0 1.834,-0.612 1.834,-1.835 V 2.479 c 0,-0.917 -0.278,-1.667 -0.834,-2.25 C 18.937,-2.688 15.213,-4.148 10.544,-4.148 6.238,-4.148 2.723,-2.767 0,0" /></g><g
           transform="translate(163.8506,53.3546)"
           id="g68"><path
             id="path70"
             style="fill:#5b465d;fill-opacity:1;fill-rule:nonzero;stroke:none"
             d="m 0,0 c 0,2.611 -1.682,3.917 -5.045,3.917 h -4.043 v -7.794 h 4.043 C -1.682,-3.877 0,-2.585 0,0 m 6.626,0 c 0,-3.982 -1.886,-6.686 -5.659,-8.105 l 6.085,-9.836 c 0.389,-0.634 0.468,-1.159 0.23,-1.571 -0.237,-0.414 -0.714,-0.62 -1.431,-0.62 H 2.737 c -0.971,0 -1.688,0.416 -2.159,1.249 l -5.623,9.879 h -4.043 v -9.293 c 0,-1.224 -0.61,-1.835 -1.834,-1.835 h -2.958 c -1.224,0 -1.834,0.611 -1.834,1.835 V 7.211 c 0,1.223 0.61,1.834 1.834,1.834 h 8.792 c 3.695,0 6.571,-0.765 8.63,-2.294 C 5.597,5.224 6.626,2.972 6.626,0" /></g><g
           transform="translate(222.5918,55.2931)"
           id="g72"><path
             id="path74"
             style="fill:#5b465d;fill-opacity:1;fill-rule:nonzero;stroke:none"
             d="m 0,0 c -1.278,-1.71 -1.917,-4.038 -1.917,-6.982 0,-2.946 0.639,-5.273 1.917,-6.981 1.279,-1.709 3.002,-2.563 5.169,-2.563 2.167,0 3.89,0.854 5.169,2.563 1.277,1.708 1.917,4.035 1.917,6.981 0,2.944 -0.64,5.272 -1.917,6.982 C 9.059,1.707 7.336,2.563 5.169,2.563 3.002,2.563 1.279,1.707 0,0 m 15.235,3.855 c 2.488,-2.834 3.731,-6.448 3.731,-10.837 0,-4.39 -1.243,-8.002 -3.731,-10.836 -2.487,-2.835 -5.842,-4.252 -10.066,-4.252 -4.224,0 -7.58,1.417 -10.065,4.252 -2.487,2.834 -3.73,6.446 -3.73,10.836 0,4.389 1.243,8.003 3.73,10.837 2.485,2.834 5.841,4.251 10.065,4.251 4.224,0 7.579,-1.417 10.066,-4.251" /></g><g
           transform="translate(295.8223,33.2228)"
           id="g76"><path
             id="path78"
             style="fill:#5b465d;fill-opacity:1;fill-rule:nonzero;stroke:none"
             d="m 0,0 c -3.809,0 -6.845,1.063 -9.107,3.188 -2.267,2.127 -3.398,5.162 -3.398,9.108 v 15.547 c 0,1.222 0.61,1.834 1.834,1.834 h 2.96 c 1.222,0 1.832,-0.612 1.832,-1.834 V 12.128 c 0,-4.389 1.96,-6.584 5.879,-6.584 3.917,0 5.876,2.195 5.876,6.584 v 15.715 c 0,1.222 0.61,1.834 1.835,1.834 h 2.957 c 1.223,0 1.835,-0.612 1.835,-1.834 V 12.296 C 12.503,8.321 11.384,5.279 9.147,3.167 6.91,1.056 3.861,0 0,0" /></g><g
           transform="translate(368.1738,52.7697)"
           id="g80"><path
             id="path82"
             style="fill:#5b465d;fill-opacity:1;fill-rule:nonzero;stroke:none"
             d="m 0,0 c 0,2.919 -1.765,4.377 -5.294,4.377 h -3.377 v -8.709 h 3.377 C -1.765,-4.332 0,-2.89 0,0 m 6.711,0 c 0,-3.14 -1.022,-5.521 -3.065,-7.147 -2.042,-1.625 -4.925,-2.439 -8.648,-2.439 h -3.669 v -8.126 c 0,-1.225 -0.61,-1.835 -1.832,-1.835 h -2.96 c -1.224,0 -1.834,0.61 -1.834,1.835 V 7.796 c 0,1.223 0.61,1.834 1.834,1.834 h 8.461 C -1.279,9.63 1.604,8.816 3.646,7.192 5.689,5.565 6.711,3.169 6.711,0" /></g></g></g></g></svg>